<svg width="18" height="20" viewBox="0 0 18 20" fill="none" xmlns="http://www.w3.org/2000/svg">
<g id="R$">
<path id="Union" fill-rule="evenodd" clip-rule="evenodd" d="M15.8686 5.63204L9.40829 1.88087C9.18922 1.75368 8.91933 1.75368 8.70026 1.88088L2.24 5.63204C2.02094 5.75924 1.88599 5.99432 1.88599 6.24872V13.751C1.88599 14.0054 2.02094 14.2405 2.24 14.3677L8.70026 18.1189C8.91933 18.2461 9.18922 18.2461 9.40829 18.1189L15.8686 14.3677C16.0876 14.2405 16.2226 14.0054 16.2226 13.751V6.24872C16.2226 5.99432 16.0876 5.75924 15.8686 5.63204ZM10.1163 0.647527C9.45912 0.265928 8.64943 0.265928 7.99224 0.647528L1.53198 4.39869C0.874786 4.78029 0.46994 5.48552 0.46994 6.24872V13.751C0.46994 14.5142 0.874787 15.2195 1.53198 15.6011L7.99224 19.3522C8.64943 19.7338 9.45912 19.7338 10.1163 19.3522L16.5766 15.6011C17.2338 15.2195 17.6386 14.5142 17.6386 13.751V6.24872C17.6386 5.48552 17.2338 4.78029 16.5766 4.39869L10.1163 0.647527Z" fill="#8690BF"/>
<path id="Subtract" fill-rule="evenodd" clip-rule="evenodd" d="M4.31821 13.0941H5.98672V10.4694C6.1957 10.4151 6.92233 10.4205 6.92233 10.8771V13.0941H8.5695V10.4038C8.52128 10.2135 8.26086 9.83717 7.60501 9.85347C7.92651 9.8195 8.5695 9.58443 8.5695 8.91592V7.89685C8.54539 7.49601 8.19335 6.69434 6.97809 6.69434H4.31821V13.0941ZM5.95771 7.75407V9.28268H6.60874C6.76948 9.25551 7.09098 9.06256 7.09098 8.50818C7.09098 7.95381 6.76948 7.77445 6.60874 7.75407H5.95771Z" fill="#8690BF"/>
<path id="Vector" d="M12.0045 9.37017C11.4244 9.11191 10.8768 8.86814 10.879 8.59076C10.8806 8.40009 11.1749 8.20514 11.6657 8.20514C11.6699 8.20514 11.6742 8.20514 11.6784 8.20514C12.3279 8.2096 12.9567 8.73057 13.0776 8.85923L13.1984 8.98789L14.3164 7.96453L14.1964 7.85276C14.008 7.67749 13.3486 7.1077 12.4925 6.85613L12.501 5.79916L10.9383 5.78857L10.93 6.82085C9.95262 7.05998 9.30132 7.75751 9.29464 8.58983C9.28574 9.68542 10.4418 10.2017 11.3708 10.6165C11.9488 10.8746 12.4947 11.1185 12.4925 11.3961C12.4916 11.4923 12.424 11.5862 12.302 11.6609C12.1508 11.7533 11.9345 11.804 11.6928 11.8016C10.9537 11.7966 10.3119 11.1356 10.3056 11.1288L10.1858 10.9986L9.0542 12.0214L9.17827 12.1369C9.36872 12.3144 10.0332 12.8905 10.8788 13.1404L10.8703 14.1976L12.4327 14.2081L12.441 13.1746C13.4249 12.925 14.0806 12.2236 14.0873 11.3968C14.0964 10.3013 12.9365 9.78494 12.0045 9.37017Z" fill="#8690BF"/>
</g>
</svg>
