<svg width="44" height="41" viewBox="0 0 44 41" fill="none" xmlns="http://www.w3.org/2000/svg">
<path d="M13.9911 39.0966C14.0749 39.1843 13.9911 39.3253 13.8738 39.2958C13.6499 39.2386 13.4288 39.1757 13.2086 39.1071C11.5476 38.5934 10.0266 37.771 8.72862 36.6341C8.65715 36.5712 8.72767 36.4559 8.81534 36.493C9.77025 36.8971 10.7852 37.1982 11.8516 37.3917C12.2509 37.4641 12.6168 37.6614 12.898 37.9549L13.9911 39.0966Z" fill="#39416D"/>
<path d="M17.9067 37.6669L19.6106 39.4481C19.6811 39.5215 19.6363 39.6463 19.5353 39.6568C19.3762 39.674 19.218 39.6882 19.0607 39.7006C18.3203 39.7616 17.5874 39.774 16.8679 39.7388C16.5915 39.7254 16.3314 39.6006 16.1398 39.4004L14.6122 37.8032C14.5559 37.7451 14.596 37.6479 14.677 37.6469C15.0725 37.6422 15.892 37.6241 16.278 37.5926C16.6373 37.565 16.9966 37.525 17.3558 37.4763C17.5598 37.4497 17.7647 37.5183 17.9067 37.6669Z" fill="#39416D"/>
<path d="M36.962 11.348C36.8429 10.9278 36.7047 10.5142 36.5465 10.1101C36.5322 10.0729 36.5808 10.0434 36.6066 10.0739C37.3223 10.9201 37.9045 11.8474 38.3515 12.8385C38.3648 12.8681 38.3258 12.8938 38.3029 12.8709L37.1298 11.6435C37.0507 11.5606 36.9935 11.4586 36.962 11.348Z" fill="#39416D"/>
<path d="M22.0631 36.4901L23.9319 38.4447C24.0044 38.5209 23.9739 38.6467 23.8748 38.681C23.7452 38.7248 23.6156 38.7677 23.4869 38.8087C22.8741 39.0088 22.2575 39.1766 21.6438 39.3109C21.4828 39.3462 21.316 39.2938 21.2016 39.1746L19.4157 37.3068C19.3395 37.2267 19.3785 37.0962 19.4853 37.0704C20.2229 36.8894 20.9557 36.6664 21.681 36.4024C21.8153 36.3538 21.965 36.3871 22.0631 36.4901Z" fill="#39416D"/>
<path d="M27.5888 36.7444C27.6737 36.833 27.6527 36.9779 27.546 37.037C27.443 37.0942 27.3411 37.1494 27.2381 37.2057C26.7083 37.4925 26.1727 37.7536 25.6343 37.99C25.5161 38.0414 25.3779 38.0128 25.2883 37.9194L23.409 35.9544C23.3242 35.8657 23.3518 35.7209 23.4633 35.6694C24.1076 35.373 24.7432 35.0452 25.3684 34.685C25.4637 34.6297 25.5837 34.6469 25.659 34.726L27.5888 36.7444Z" fill="#39416D"/>
<path d="M30.8463 34.6296C30.9006 34.6868 30.8949 34.7792 30.8329 34.8288C30.7214 34.9174 30.608 35.0051 30.4956 35.0908C30.0276 35.452 29.5511 35.7922 29.067 36.1105C28.9841 36.1649 28.8745 36.1515 28.8059 36.08L26.8046 33.9873C26.7455 33.9253 26.757 33.8272 26.8275 33.7795C27.4279 33.3764 28.0168 32.9447 28.5905 32.4854C28.6553 32.4329 28.7497 32.4387 28.8078 32.4997L30.8463 34.6296Z" fill="#39416D"/>
<path d="M33.6345 32.0186C33.6898 32.0767 33.6917 32.1682 33.6374 32.2273C33.5402 32.333 33.4411 32.4379 33.342 32.5418C33.0055 32.8944 32.3661 33.4986 32.0973 33.7511C32.0278 33.8159 31.9201 33.813 31.8534 33.7435L29.8521 31.6497C29.7844 31.5783 29.7863 31.4668 29.8578 31.3991C30.1618 31.1104 30.928 30.3737 31.3788 29.8962C31.4398 29.8314 31.5418 29.8324 31.6037 29.8962L33.6345 32.0186Z" fill="#39416D"/>
<path d="M36.1022 29.0788C35.9945 29.2418 35.8859 29.4028 35.7744 29.5639C35.7153 29.6496 35.6552 29.7364 35.5923 29.8202C35.0329 28.9463 34.3792 28.0305 33.6396 27.0842C33.7178 26.9708 33.795 26.8583 33.8693 26.7449L36.1022 29.0788Z" fill="#39416D"/>
<path d="M37.8552 25.3896C37.941 25.4791 37.9657 25.6126 37.9162 25.7269C37.8609 25.8527 37.8047 25.9785 37.7465 26.1033C37.4921 26.6637 37.21 27.2203 36.9003 27.7682C36.8641 27.8321 36.7764 27.8426 36.7259 27.7901L34.6055 25.5706C35.0276 24.8492 35.405 24.1164 35.7376 23.3759C35.7672 23.3092 35.8548 23.2939 35.9054 23.3473L37.8552 25.3896Z" fill="#39416D"/>
<path d="M39.1467 21.2135C39.2124 21.2821 39.242 21.3783 39.2258 21.4717C39.1934 21.6518 39.1562 21.8301 39.1171 22.0102C38.9751 22.6754 38.7931 23.3444 38.571 24.0096C38.5501 24.0715 38.47 24.0896 38.4252 24.042L36.4602 21.9863C36.3906 21.9139 36.3687 21.8081 36.402 21.7128C36.6889 20.899 36.9214 20.0823 37.0987 19.2646C37.113 19.1969 37.1968 19.1731 37.2445 19.2236L39.1467 21.2135Z" fill="#39416D"/>
<path d="M39.3378 19.4732L37.5471 17.6034C37.4537 17.5052 37.4089 17.3709 37.4222 17.2365C37.5309 16.1834 37.5442 15.1437 37.4594 14.1288C37.4537 14.0544 37.5423 14.0144 37.5938 14.0678L39.1052 15.6488C39.2158 15.7651 39.2911 15.9109 39.3177 16.0691C39.3578 16.3121 39.3921 16.557 39.4188 16.8038C39.5122 17.6577 39.5293 18.5354 39.475 19.4236C39.4712 19.4922 39.3854 19.5227 39.3378 19.4732Z" fill="#39416D"/>
<path d="M28.4127 24.9455C28.2879 25.1066 28.1602 25.2657 28.0287 25.4229C27.455 26.1129 26.8241 26.7705 26.1475 27.3861C23.2475 30.0192 19.7471 31.6508 16.2925 31.9776C15.8656 32.0177 15.4453 32.0377 15.0336 32.0377C12.066 32.0377 9.50436 30.9961 7.73179 29.0443C4.05132 24.9884 4.86518 18.0811 9.33758 12.7586C9.86935 12.1249 10.4535 11.514 11.0882 10.9327C10.1133 10.3847 9.18415 9.91963 8.31502 9.5575C8.30263 9.56988 8.2912 9.58132 8.2769 9.59466C7.92143 9.95108 7.57836 10.3189 7.25339 10.6897C7.01418 10.9613 6.78165 11.2367 6.55579 11.5149C0.953138 18.4585 0.0840073 27.3814 4.93856 32.7267C10.4745 38.8249 21.3568 37.9605 29.2428 30.7988C30.0528 30.0621 30.8 29.2873 31.4795 28.4849C31.4814 28.483 31.4814 28.483 31.4833 28.4811C30.5722 27.3413 29.5354 26.1463 28.4127 24.9455ZM22.1277 18.9359C18.6131 15.9435 15.026 13.2532 11.8525 11.3749L11.5352 11.6817C11.0263 12.1563 10.5517 12.6509 10.1133 13.1617C5.80293 18.1764 4.93856 24.6958 8.36458 28.4716C10.1991 30.49 12.9856 31.4344 16.2115 31.1285C19.4851 30.8178 22.8101 29.2654 25.5728 26.7552C26.2208 26.1672 26.8231 25.5373 27.3711 24.8788C27.4321 24.8054 27.494 24.7311 27.5531 24.6567L27.8371 24.3375C26.0655 22.4811 24.1119 20.6246 22.1277 18.9359Z" fill="#39416D"/>
<path d="M29.4553 21.7434C29.137 21.4223 28.8215 21.1126 28.5147 20.8152C27.4282 19.7641 26.2694 18.7082 25.0686 17.6818C24.7065 17.3711 24.3653 17.0842 24.0299 16.8069C23.967 16.7545 23.9041 16.7011 23.844 16.6516C23.3961 16.2828 23.0006 15.9616 22.6366 15.6738C22.4479 15.5232 22.2611 15.3746 22.0724 15.2278C20.662 14.1214 19.2525 13.076 17.8792 12.1249C16.5984 11.2395 15.3309 10.4161 14.1016 9.67472C19.4974 6.16388 25.6538 6.18294 28.9321 9.79289C31.5471 12.6719 31.7348 17.3149 29.4553 21.7434Z" fill="#39416D"/>
<path d="M33.0807 26.3837C32.1353 25.2153 31.0613 24.006 29.8682 22.7728L29.9291 22.6623C32.6719 17.761 32.528 12.4843 29.5632 9.22029C25.8808 5.16434 18.9383 5.21866 13.0592 9.34799L12.8991 9.46044C11.9252 8.89817 10.9855 8.39309 10.084 7.9509C17.8804 1.50484 28.1671 0.920656 33.4981 6.7911C37.9839 11.7295 37.5855 19.7194 33.0807 26.3837Z" fill="#39416D"/>
<path d="M38.6011 36.3452C37.6061 37.5165 35.3533 37.4631 32.3542 36.4186C32.0473 36.3119 32.1493 35.8516 32.4724 35.884C34.0133 36.0393 36.1338 35.3913 36.4168 34.3935C37.1649 31.7585 30.4063 23.5113 23.2521 17.4197C15.4995 10.8202 7.38478 5.67596 4.13888 7.49618C3.04484 8.10991 3.40316 10.562 4.13411 12.5061C4.25038 12.8158 3.89014 12.974 3.64427 12.7519C0.180136 9.62422 -1.0235 5.79318 0.946344 3.71279C5.10807 -0.680513 18.551 8.46442 25.4707 14.7208C34.7081 23.071 41.0722 33.4396 38.6011 36.3452Z" fill="#39416D"/>
<path d="M43.0454 4.31397L40.1006 5.16023C39.889 5.22122 39.7242 5.38609 39.6641 5.5967L38.8179 8.54145C38.8083 8.5729 38.7636 8.5729 38.755 8.54145L37.9087 5.5967C37.8477 5.38513 37.6829 5.22027 37.4722 5.16023L34.5275 4.31397C34.496 4.30444 34.496 4.25965 34.5275 4.25107L37.4722 3.40481C37.6838 3.34382 37.8487 3.17895 37.9087 2.96834L38.755 0.0235866C38.7645 -0.00786221 38.8093 -0.00786221 38.8179 0.0235866L39.6641 2.96834C39.7251 3.1799 39.89 3.34477 40.1006 3.40481L43.0454 4.25107C43.0768 4.25965 43.0768 4.30444 43.0454 4.31397Z" fill="#39416D"/>
<path d="M6.75729 37.1933L4.59971 37.8137C4.44533 37.8585 4.3243 37.9795 4.27951 38.1339L3.65911 40.2915C3.65244 40.3144 3.61908 40.3144 3.61241 40.2915L2.99201 38.1339C2.94722 37.9795 2.82619 37.8585 2.6718 37.8137L0.514224 37.1933C0.491352 37.1866 0.491352 37.1533 0.514224 37.1466L2.6718 36.5262C2.82619 36.4814 2.94722 36.3604 2.99201 36.206L3.61241 34.0484C3.61908 34.0256 3.65244 34.0256 3.65911 34.0484L4.27951 36.206C4.3243 36.3604 4.44533 36.4814 4.59971 36.5262L6.75729 37.1466C6.78112 37.1533 6.78112 37.1866 6.75729 37.1933Z" fill="#39416D"/>
<path opacity="0.2" d="M9.33743 12.7587C8.26817 12.2165 7.32661 11.7933 6.55469 11.5141C6.78055 11.2358 7.01308 10.9604 7.25228 10.6888C7.5782 10.3181 7.92128 9.95121 8.2758 9.59384C8.29009 9.5805 8.30153 9.56906 8.31392 9.55667C9.18305 9.91976 10.1132 10.3848 11.0871 10.9318C10.4534 11.5141 9.8692 12.125 9.33743 12.7587Z" fill="#231F20"/>
<path opacity="0.2" d="M27.8371 24.3366L27.5531 24.6559C27.4931 24.7302 27.4321 24.8045 27.3711 24.8779C21.7008 20.2187 14.8659 15.6806 10.1143 13.1609C10.5536 12.6501 11.0272 12.1554 11.5361 11.6809L11.8535 11.374C15.0269 13.2523 18.615 15.9436 22.1287 18.9351C24.1118 20.6247 26.0655 22.4811 27.8371 24.3366Z" fill="#231F20"/>
<path opacity="0.2" d="M31.4839 28.4812C31.482 28.4831 31.482 28.4831 31.4801 28.485C30.4146 27.4758 29.2529 26.4485 28.0283 25.424C28.1598 25.2668 28.2875 25.1067 28.4124 24.9466C29.535 26.1464 30.5719 27.3414 31.4839 28.4812Z" fill="#231F20"/>
</svg>
