<svg width="40" height="45" viewBox="0 0 40 45" fill="none" xmlns="http://www.w3.org/2000/svg">
<path fill-rule="evenodd" clip-rule="evenodd" d="M35.2351 12.6726L20.792 4.23246C20.3022 3.94626 19.6988 3.94626 19.209 4.23246L4.7659 12.6726C4.27614 12.9588 3.97444 13.4877 3.97444 14.0601L3.97444 30.9403C3.97444 31.5127 4.27614 32.0417 4.7659 32.3279L19.209 40.768C19.6988 41.0542 20.3022 41.0542 20.792 40.768L35.2351 32.3279C35.7249 32.0417 36.0266 31.5127 36.0266 30.9403L36.0266 14.0601C36.0266 13.4877 35.7249 12.9588 35.2351 12.6726ZM22.3749 1.45742C20.9056 0.598826 19.0954 0.598827 17.6261 1.45742L3.18298 9.89755C1.7137 10.7561 0.808594 12.3429 0.808594 14.0601L0.808594 30.9403C0.808593 32.6575 1.7137 34.2443 3.18298 35.1029L17.6261 43.543C19.0954 44.4016 20.9056 44.4016 22.3749 43.543L36.818 35.1029C38.2873 34.2443 39.1924 32.6575 39.1924 30.9403L39.1924 14.0601C39.1924 12.3429 38.2873 10.7561 36.818 9.89755L22.3749 1.45742Z" fill="#52D5FE"/>
<path fill-rule="evenodd" clip-rule="evenodd" d="M9.41211 29.4614L13.1424 29.4614L13.1424 23.5558C13.6096 23.4336 15.2341 23.4458 15.2341 24.473L15.2341 29.4614L18.9167 29.4614L18.9167 23.4081C18.8089 22.9801 18.2267 22.1333 16.7604 22.1699C17.4791 22.0935 18.9167 21.5646 18.9167 20.0605L18.9167 17.7675C18.8628 16.8657 18.0757 15.0619 15.3588 15.0619L9.41211 15.0619L9.41211 29.4614ZM13.0775 17.4467L13.0775 20.8867L14.533 20.8867C14.8924 20.8255 15.6112 20.3913 15.6112 19.1438C15.6112 17.8962 14.8924 17.4926 14.533 17.4467L13.0775 17.4467Z" fill="#52D5FE"/>
<path d="M26.5959 21.0826C25.2991 20.5016 24.0747 19.9531 24.0796 19.329C24.0833 18.9 24.7412 18.4613 25.8385 18.4613C25.848 18.4613 25.8575 18.4613 25.867 18.4613C27.319 18.4714 28.7249 19.6435 28.995 19.933L29.2652 20.2225L31.7647 17.9199L31.4964 17.6685C31.0751 17.2741 29.6009 15.9921 27.6869 15.426L27.7059 13.0479L24.2122 13.024L24.1937 15.3467C22.0086 15.8847 20.5525 17.4542 20.5376 19.3269C20.5176 21.792 23.1023 22.9537 25.1792 23.8869C26.4715 24.4676 27.6919 25.0165 27.6869 25.641C27.6851 25.8574 27.5339 26.0688 27.2611 26.2367C26.9231 26.4447 26.4394 26.5588 25.8991 26.5533C24.2466 26.5421 22.8118 25.0549 22.7977 25.0395L22.5299 24.7466L20 27.0479L20.2774 27.3078C20.7032 27.7071 22.1887 29.0034 24.0792 29.5656L24.0602 31.9442L27.5534 31.9681L27.5719 29.6425C29.7715 29.0811 31.2376 27.5029 31.2525 25.6427C31.2728 23.1776 28.6796 22.0159 26.5959 21.0826Z" fill="#52D5FE"/>
</svg>
